<svg width="175" height="175" viewBox="0 0 175 175" fill="none" xmlns="http://www.w3.org/2000/svg">
<rect x="24" y="24" width="48" height="48" rx="24" fill="#FFF1E4"/>
<path d="M47.9984 45.0001V48.7501M38.6954 52.1261C37.8294 53.6261 38.9124 55.5001 40.6434 55.5001H55.3534C57.0834 55.5001 58.1664 53.6261 57.3014 52.1261L49.9474 39.3781C49.0814 37.8781 46.9154 37.8781 46.0494 39.3781L38.6954 52.1261ZM47.9984 51.7501H48.0054V51.7581H47.9984V51.7501Z" stroke="#FDAE66" stroke-width="1.5" stroke-linecap="round" stroke-linejoin="round"/>
<path d="M90.7586 48C90.7586 71.6149 71.6149 90.7586 48 90.7586C24.3851 90.7586 5.24138 71.6149 5.24138 48C5.24138 24.3851 24.3851 5.24138 48 5.24138C71.6149 5.24138 90.7586 24.3851 90.7586 48Z" stroke="#FFF1E4"/>
<path d="M110 48C110 82.2417 82.2417 110 48 110C13.7583 110 -14 82.2417 -14 48C-14 13.7583 13.7583 -14 48 -14C82.2417 -14 110 13.7583 110 48Z" stroke="#FFF1E4"/>
<path d="M72.0517 48C72.0517 61.2834 61.2834 72.0517 48 72.0517C34.7166 72.0517 23.9483 61.2834 23.9483 48C23.9483 34.7166 34.7166 23.9483 48 23.9483C61.2834 23.9483 72.0517 34.7166 72.0517 48Z" stroke="#FFF1E4"/>
<g opacity="0.5">
<path d="M134.897 48C134.897 95.9916 95.9916 134.897 48 134.897C0.00835723 134.897 -38.8966 95.9916 -38.8966 48C-38.8966 0.00835723 0.00835723 -38.8966 48 -38.8966C95.9916 -38.8966 134.897 0.00835723 134.897 48Z" stroke="#FFF1E4"/>
<path d="M174 48C174 117.588 117.588 174 48 174C-21.5879 174 -78 117.588 -78 48C-78 -21.5879 -21.5879 -78 48 -78C117.588 -78 174 -21.5879 174 48Z" stroke="#FFF1E4"/>
</g>
</svg>
